classDiagram
    direction LR

    Organization "1" -- "*" Position : contains
    Position "1" -- "*" Officer : holds

    class Organization {
        +String id
        +String name
        +String description
    }

    class Position {
        +String id
        +String title
        +String description
        +String org_id (FK)
    }

    class Officer {
        +String id
        +String firstName
        +String lastName
        +String position_id (FK)
    }

    class Role {
        +String id
        +String name
        +String description
    }

    class Permission {
        +String id
        +String code
        +String description
    }

    Role "1" -- "*" Permission : contains
    Organization "*" -- "*" Role : assigned to
    Position "*" -- "*" Role : assigned to
    Officer "*" -- "*" Role : assigned to
